<svg width="35" height="34" viewBox="0 0 35 34" fill="none" xmlns="http://www.w3.org/2000/svg">
<path d="M16.8375 33.6751C26.1366 33.6751 33.6751 26.1367 33.6751 16.8375C33.6751 7.53842 26.1366 0 16.8375 0C7.53842 0 0 7.53842 0 16.8375C0 26.1367 7.53842 33.6751 16.8375 33.6751Z" fill="#005EAB"/>
<path d="M5.53302 16.9323C5.12885 16.9323 4.74119 16.7717 4.4554 16.4858C4.16961 16.1999 4.00903 15.8122 4.00903 15.4079C4.00903 12.868 4.00903 7.84047 4.00903 5.72622C4.00903 5.46821 4.11152 5.22077 4.29389 5.03835C4.4763 4.85589 4.72367 4.75342 4.98161 4.75342H5.32321C5.58115 4.75342 5.82852 4.85589 6.01089 5.03835C6.19329 5.22077 6.29574 5.46821 6.29574 5.72622C6.29574 8.21978 6.29574 14.6449 6.29574 14.6449H9.34469V5.72622C9.34469 5.46821 9.44717 5.22077 9.62954 5.03835C9.81195 4.85589 10.0593 4.75342 10.3173 4.75342H10.6589C10.9168 4.75342 11.1642 4.85589 11.3465 5.03835C11.5289 5.22077 11.6314 5.46821 11.6314 5.72622C11.6314 7.84047 11.6314 12.868 11.6314 15.4079C11.6314 15.8122 11.4709 16.1999 11.185 16.4858C10.8992 16.7717 10.5116 16.9323 10.1074 16.9323C8.7788 16.9323 6.86163 16.9323 5.53302 16.9323Z" fill="white"/>
<path d="M13.5134 16.9324C12.882 16.9324 12.3701 16.4203 12.3701 15.7887C12.3701 13.8352 12.3701 9.85889 12.3701 7.71154C12.3701 7.32605 12.5232 6.95633 12.7957 6.68376C13.0682 6.41119 13.4378 6.25805 13.8232 6.25805C14.578 6.25805 15.4978 6.25805 16.2527 6.25805C16.6381 6.25805 17.0077 6.41119 17.2802 6.68376C17.5527 6.95633 17.7058 7.32605 17.7058 7.71154V14.645H18.468V6.05977C18.468 5.42814 18.9799 4.91614 19.6113 4.91614C19.6114 4.91614 19.6114 4.91614 19.6114 4.91614C20.2429 4.91614 20.7547 5.42814 20.7547 6.05977V15.6414C20.7547 16.3544 20.1769 16.9324 19.4642 16.9324C18.6287 16.9324 17.5451 16.9324 16.7096 16.9324C15.9968 16.9324 15.4191 16.3544 15.4191 15.6414C15.4191 13.2892 15.4191 8.5454 15.4191 8.5454H14.6568V15.7887C14.6568 16.092 14.5364 16.3829 14.322 16.5974C14.1076 16.8119 13.8167 16.9324 13.5135 16.9324C13.5135 16.9324 13.5135 16.9324 13.5134 16.9324Z" fill="white"/>
<path d="M22.6276 16.9325C22.3265 16.9325 22.0378 16.8128 21.8249 16.5999C21.612 16.3869 21.4924 16.0981 21.4924 15.797V10.4435C21.4924 10.1423 21.612 9.85349 21.8249 9.64053C22.0378 9.42761 22.3265 9.30798 22.6276 9.30798H22.644C22.945 9.30798 23.2338 9.42761 23.4467 9.64053C23.6595 9.85349 23.7791 10.1423 23.7791 10.4435V15.797C23.7791 16.0981 23.6595 16.3869 23.4467 16.5999C23.2338 16.8128 22.945 16.9325 22.644 16.9325C22.6385 16.9325 22.6331 16.9325 22.6276 16.9325ZM22.6141 8.54553C22.3166 8.54553 22.0313 8.42732 21.821 8.21688C21.6106 8.00649 21.4924 7.72111 21.4924 7.42353V7.38014C21.4924 7.0826 21.6106 6.79722 21.821 6.58678C22.0313 6.37639 22.3166 6.25818 22.6141 6.25818H22.6575C22.9549 6.25818 23.2402 6.37639 23.4506 6.58678C23.661 6.79722 23.7791 7.0826 23.7791 7.38014C23.7791 7.39461 23.7791 7.40909 23.7791 7.42353C23.7791 7.72111 23.661 8.00649 23.4506 8.21688C23.2402 8.42732 22.9549 8.54553 22.6575 8.54553H22.6141Z" fill="white"/>
<path d="M27.9484 18.1931C27.6452 18.1931 27.3544 18.0726 27.14 17.8581C26.9255 17.6436 26.8051 17.3527 26.8051 17.0494V8.54553C26.8051 8.54553 25.7843 8.54553 24.9299 8.54553C24.2985 8.54553 23.7866 8.03349 23.7866 7.40189V7.40181C23.7866 6.77018 24.2985 6.25818 24.9299 6.25818C26.9755 6.25818 31.2386 6.25818 33.2841 6.25818C33.9156 6.25818 34.4274 6.77018 34.4274 7.40181V7.40189C34.4274 8.03349 33.9156 8.54553 33.2841 8.54553C31.7165 8.54553 29.0918 8.54553 29.0918 8.54553V17.0494C29.0918 17.3527 28.9713 17.6436 28.7569 17.8581C28.5425 18.0726 28.2517 18.1931 27.9485 18.1931H27.9484Z" fill="white"/>
<path d="M5.1025 30.3766C4.49861 30.3766 4.00903 29.887 4.00903 29.2829C4.00903 26.8532 4.00903 21.0299 4.00903 18.6002C4.00903 17.9962 4.49861 17.5065 5.1025 17.5065C5.11816 17.5065 5.13385 17.5065 5.1495 17.5065C5.78254 17.5065 6.29574 18.0198 6.29574 18.653C6.29574 20.2215 6.29574 22.8436 6.29574 22.8436H9.34469V18.653C9.34469 18.0198 9.85788 17.5065 10.4909 17.5065H10.538C11.1419 17.5065 11.6314 17.9962 11.6314 18.6002C11.6314 21.0299 11.6314 26.8532 11.6314 29.2829C11.6314 29.887 11.1419 30.3766 10.538 30.3766C10.5223 30.3766 10.5066 30.3766 10.4909 30.3766C9.85788 30.3766 9.34469 29.8633 9.34469 29.2301V25.131H6.29574V29.2301C6.29574 29.8633 5.78254 30.3766 5.1495 30.3766H5.1025Z" fill="white"/>
<path d="M13.6125 28.1808C13.2828 28.1808 12.9666 28.0498 12.7335 27.8166C12.5004 27.5834 12.3694 27.2671 12.3694 26.9373C12.3694 24.8455 12.3694 20.6541 12.3694 18.6392C12.3694 18.3388 12.4887 18.0507 12.7011 17.8382C12.9134 17.6258 13.2015 17.5065 13.5018 17.5065C13.5091 17.5065 13.5164 17.5065 13.5237 17.5065C13.824 17.5065 14.112 17.6258 14.3244 17.8382C14.5368 18.0507 14.6561 18.3388 14.6561 18.6392C14.6561 20.9292 14.6561 25.8934 14.6561 25.8934H17.705V18.6392C17.705 18.3388 17.8243 18.0507 18.0367 17.8382C18.2491 17.6258 18.5371 17.5065 18.8375 17.5065C18.8448 17.5065 18.8521 17.5065 18.8593 17.5065C19.1597 17.5065 19.4477 17.6258 19.6601 17.8382C19.8724 18.0507 19.9917 18.3388 19.9917 18.6392C19.9917 20.6541 19.9917 24.8455 19.9917 26.9373C19.9917 27.2671 19.8608 27.5834 19.6277 27.8166C19.3945 28.0498 19.0783 28.1808 18.7486 28.1808H13.6125Z" fill="white"/>
<path d="M26.0661 25.8934V23.6061H23.0172V25.8934H26.0661ZM24.5416 21.3187V19.7938H23.0172V21.3187H24.5416ZM22.0217 28.1808C21.3086 28.1808 20.7305 27.6025 20.7305 26.8892V18.798C20.7305 18.4555 20.8665 18.127 21.1087 17.8848C21.3508 17.6426 21.6792 17.5065 22.0217 17.5065H25.5372C26.2503 17.5065 26.8284 18.0847 26.8284 18.798V21.3187H27.0617C27.4041 21.3187 27.7325 21.4548 27.9747 21.697C28.2168 21.9393 28.3528 22.2677 28.3528 22.6103V26.8892C28.3528 27.6025 27.7747 28.1808 27.0617 28.1808H22.0217Z" fill="white"/>
</svg>
