<svg width="92" height="90" viewBox="0 0 92 90" fill="none" xmlns="http://www.w3.org/2000/svg">
<path d="M44.8049 89.1708C69.2738 89.1708 89.1098 69.3348 89.1098 44.8659C89.1098 20.397 69.2738 0.561035 44.8049 0.561035C20.336 0.561035 0.5 20.397 0.5 44.8659C0.5 69.3348 20.336 89.1708 44.8049 89.1708Z" fill="#FDBC14"/>
<path d="M15.3937 45.1612C14.3291 45.1612 13.308 44.7381 12.5552 43.9852C11.8025 43.2322 11.3795 42.2108 11.3795 41.1459C11.3795 34.4558 11.3795 21.2135 11.3795 15.6446C11.3795 14.965 11.6495 14.3133 12.1298 13.8328C12.6103 13.3522 13.2619 13.0823 13.9413 13.0823H14.841C15.5204 13.0823 16.172 13.3522 16.6524 13.8328C17.1328 14.3133 17.4027 14.965 17.4027 15.6446C17.4027 22.2126 17.4027 39.1364 17.4027 39.1364H25.4335V15.6446C25.4335 14.965 25.7035 14.3133 26.1838 13.8328C26.6643 13.3522 27.3159 13.0823 27.9953 13.0823H28.895C29.5744 13.0823 30.226 13.3522 30.7064 13.8328C31.1868 14.3133 31.4567 14.965 31.4567 15.6446C31.4567 21.2135 31.4567 34.4558 31.4567 41.1459C31.4567 42.2108 31.0338 43.2322 30.281 43.9852C29.5282 44.7381 28.5072 45.1612 27.4425 45.1612C23.943 45.1612 18.8932 45.1612 15.3937 45.1612Z" fill="white"/>
<path d="M36.413 45.1611C34.7498 45.1611 33.4015 43.8124 33.4015 42.1488C33.4015 37.0032 33.4015 26.5297 33.4015 20.8737C33.4015 19.8583 33.8047 18.8845 34.5225 18.1665C35.2403 17.4486 36.2138 17.0452 37.2289 17.0452C39.2171 17.0452 41.6399 17.0452 43.6281 17.0452C44.6432 17.0452 45.6168 17.4486 46.3345 18.1665C47.0522 18.8845 47.4555 19.8583 47.4555 20.8737V39.1363H49.4632V16.5229C49.4632 14.8592 50.8116 13.5106 52.4747 13.5106C52.4748 13.5106 52.4749 13.5106 52.4749 13.5106C54.1381 13.5106 55.4864 14.8592 55.4864 16.5229V41.7609C55.4864 43.6388 53.9645 45.1611 52.0871 45.1611C49.8866 45.1611 47.0322 45.1611 44.8316 45.1611C42.9542 45.1611 41.4324 43.6388 41.4324 41.7609C41.4324 35.5652 41.4324 23.07 41.4324 23.07H39.4246V42.1488C39.4246 42.9477 39.1074 43.7139 38.5426 44.2788C37.9779 44.8438 37.2119 45.1611 36.4132 45.1611C36.4132 45.1611 36.4131 45.1611 36.413 45.1611Z" fill="white"/>
<path d="M60.4211 45.1611C59.6281 45.1611 58.8676 44.846 58.3068 44.2851C57.746 43.7241 57.431 42.9634 57.431 42.1702V28.0692C57.431 27.2759 57.746 26.5151 58.3068 25.9542C58.8676 25.3934 59.6281 25.0783 60.4211 25.0783H60.4641C61.2571 25.0783 62.0177 25.3934 62.5785 25.9542C63.1392 26.5151 63.4542 27.2759 63.4542 28.0692V42.1702C63.4542 42.9634 63.1392 43.7241 62.5785 44.2851C62.0177 44.846 61.2571 45.1611 60.4641 45.1611C60.4498 45.1611 60.4354 45.1611 60.4211 45.1611ZM60.3855 23.07C59.6019 23.07 58.8505 22.7586 58.2964 22.2044C57.7423 21.6502 57.431 20.8985 57.431 20.1147V20.0004C57.431 19.2167 57.7423 18.465 58.2964 17.9107C58.8505 17.3565 59.6019 17.0452 60.3855 17.0452H60.4998C61.2833 17.0452 62.0347 17.3565 62.5889 17.9107C63.1429 18.465 63.4542 19.2167 63.4542 20.0004C63.4542 20.0385 63.4542 20.0766 63.4542 20.1147C63.4542 20.8985 63.1429 21.6502 62.5889 22.2044C62.0347 22.7586 61.2833 23.07 60.4998 23.07H60.3855Z" fill="white"/>
<path d="M74.4343 48.4815C73.6356 48.4815 72.8697 48.1641 72.305 47.5991C71.7401 47.0342 71.4228 46.2681 71.4228 45.4691V23.07C71.4228 23.07 68.7341 23.07 66.4838 23.07C64.8206 23.07 63.4723 21.7213 63.4723 20.0577V20.0575C63.4723 18.3938 64.8206 17.0452 66.4838 17.0452C71.8718 17.0452 83.1006 17.0452 88.4885 17.0452C90.1518 17.0452 91.5 18.3938 91.5 20.0575V20.0577C91.5 21.7213 90.1518 23.07 88.4885 23.07C84.3595 23.07 77.446 23.07 77.446 23.07V45.4691C77.446 46.2681 77.1287 47.0342 76.564 47.5991C75.9993 48.1641 75.2332 48.4815 74.4345 48.4815H74.4343Z" fill="white"/>
<path d="M14.2597 80.5734C12.6691 80.5734 11.3795 79.2836 11.3795 77.6925C11.3795 71.2927 11.3795 55.9543 11.3795 49.5546C11.3795 47.9635 12.6691 46.6736 14.2597 46.6736C14.3009 46.6736 14.3423 46.6736 14.3835 46.6736C16.0509 46.6736 17.4027 48.0257 17.4027 49.6936C17.4027 53.8249 17.4027 60.7315 17.4027 60.7315H25.4335V49.6936C25.4335 48.0257 26.7853 46.6736 28.4527 46.6736H28.5766C30.1672 46.6736 31.4567 47.9635 31.4567 49.5546C31.4567 55.9543 31.4567 71.2927 31.4567 77.6925C31.4567 79.2836 30.1672 80.5734 28.5766 80.5734C28.5353 80.5734 28.494 80.5734 28.4527 80.5734C26.7853 80.5734 25.4335 79.2213 25.4335 77.5533V66.7564H17.4027V77.5533C17.4027 79.2213 16.0509 80.5734 14.3835 80.5734H14.2597Z" fill="white"/>
<path d="M36.6752 74.7895C35.8068 74.7895 34.974 74.4445 34.36 73.8302C33.7459 73.216 33.4009 72.3829 33.4009 71.5142C33.4009 66.0045 33.4009 54.9645 33.4009 49.6572C33.4009 48.8659 33.7151 48.107 34.2745 47.5475C34.8339 46.9879 35.5926 46.6736 36.3836 46.6736C36.4029 46.6736 36.4221 46.6736 36.4413 46.6736C37.2324 46.6736 37.991 46.9879 38.5504 47.5475C39.1098 48.107 39.424 48.8659 39.424 49.6572C39.424 55.6891 39.424 68.7647 39.424 68.7647H47.4549V49.6572C47.4549 48.8659 47.7692 48.107 48.3285 47.5475C48.8879 46.9879 49.6466 46.6736 50.4377 46.6736C50.4569 46.6736 50.4761 46.6736 50.4953 46.6736C51.2864 46.6736 52.045 46.9879 52.6044 47.5475C53.1638 48.107 53.478 48.8659 53.478 49.6572C53.478 54.9645 53.478 66.0045 53.478 71.5142C53.478 72.3829 53.1331 73.216 52.519 73.8302C51.9049 74.4445 51.0721 74.7895 50.2037 74.7895H36.6752Z" fill="white"/>
<path d="M69.4777 68.7647V62.7398H61.4469V68.7647H69.4777ZM65.4623 56.715V52.6984H61.4469V56.715H65.4623ZM58.8247 74.7895C56.9464 74.7895 55.4237 73.2664 55.4237 71.3876V50.0756C55.4237 49.1733 55.7821 48.3081 56.4199 47.67C57.0576 47.0321 57.9227 46.6736 58.8247 46.6736H68.0845C69.9628 46.6736 71.4854 48.1967 71.4854 50.0756V56.715H72.1C73.002 56.715 73.867 57.0735 74.5048 57.7114C75.1426 58.3495 75.5009 59.2147 75.5009 60.117V71.3876C75.5009 73.2664 73.9782 74.7895 72.1 74.7895H58.8247Z" fill="white"/>
</svg>
